<svg width="40" height="40" viewBox="0 0 40 40" fill="none" xmlns="http://www.w3.org/2000/svg">
<rect x="0.5" y="0.5" width="39" height="39" rx="19.5" fill="white"/>
<rect x="0.5" y="0.5" width="39" height="39" rx="19.5" stroke="#E5E7EB"/>
<path d="M19.9531 26.1562C17.6953 26.1562 16.0312 24.8047 15.9688 22.9375H17.9531C18.0156 23.8516 18.8828 24.5078 19.9531 24.5156C21.2188 24.5078 22.1328 23.5938 22.125 22.3438C22.1328 21.0469 21.1953 20.1328 19.8906 20.125C19.0078 20.1172 18.3672 20.4297 18.0156 21.0938H16.125L16.8125 14.6875H23.5V16.3906H18.4844L18.1406 19.3906H18.25C18.6875 18.8984 19.5078 18.5391 20.4375 18.5312C22.5391 18.5391 24.1016 20.1016 24.0938 22.2812C24.1016 24.5391 22.3984 26.1562 19.9531 26.1562Z" fill="#6B7280"/>
</svg>
