<svg width="40" height="40" viewBox="0 0 40 40" fill="none" xmlns="http://www.w3.org/2000/svg">
<rect x="0.5" y="0.5" width="39" height="39" rx="19.5" fill="white"/>
<rect x="0.5" y="0.5" width="39" height="39" rx="19.5" stroke="#E5E7EB"/>
<path d="M15.9375 26V24.5312L19.9375 20.6719C21.0781 19.5312 21.6719 18.8594 21.6719 17.9062C21.6719 16.8516 20.8359 16.1875 19.7344 16.1875C18.5703 16.1875 17.8203 16.9141 17.8281 18.0625H15.8906C15.8828 15.9219 17.4922 14.5312 19.75 14.5312C22.0625 14.5312 23.6172 15.9141 23.625 17.8125C23.6172 19.0859 23.0078 20.1172 20.7812 22.2188L18.7656 24.2188V24.2969H23.7969V26H15.9375Z" fill="#6B7280"/>
</svg>
