<svg width="40" height="40" viewBox="0 0 40 40" fill="none" xmlns="http://www.w3.org/2000/svg">
<rect x="0.5" y="0.5" width="39" height="39" rx="19.5" fill="white"/>
<rect x="0.5" y="0.5" width="39" height="39" rx="19.5" stroke="#E5E7EB"/>
<path d="M19.5469 26.1562C17.1328 26.1562 15.4062 24.8438 15.3594 22.9375H17.4062C17.4609 23.8438 18.3672 24.4453 19.5469 24.4375C20.7891 24.4453 21.6875 23.7578 21.6875 22.75C21.6875 21.7344 20.8125 21.0078 19.3438 21H18.3281V19.4375H19.3438C20.5469 19.4375 21.3828 18.7656 21.375 17.7812C21.3828 16.8281 20.6641 16.1875 19.5625 16.1875C18.5 16.1875 17.5859 16.7812 17.5469 17.7344H15.5938C15.6406 15.8359 17.3672 14.5312 19.5781 14.5312C21.875 14.5312 23.3594 15.9375 23.3438 17.6719C23.3594 18.9375 22.5156 19.8516 21.2812 20.1094V20.2031C22.875 20.4141 23.7812 21.4375 23.7656 22.8594C23.7812 24.7734 21.9922 26.1562 19.5469 26.1562Z" fill="#6B7280"/>
</svg>
